<svg width="120" height="70" viewBox="0 0 120 70" fill="none" xmlns="http://www.w3.org/2000/svg">
<path d="M24.7716 31.4898L22.3236 32.5393C22.137 32.6192 22.0487 32.8386 22.1269 33.0264C22.1683 33.1232 22.242 33.1907 22.3292 33.2256C22.4164 33.2604 22.5159 33.2638 22.6131 33.2233L25.0611 32.1737C25.2477 32.0939 25.3361 31.8745 25.2578 31.6866C25.1784 31.4999 24.9582 31.411 24.7727 31.4898H24.7716Z" fill="#2B2B2B"/>
<path d="M40.8982 21.0696C39.5557 19.5745 37.5314 18.705 34.7258 18.4023V16.8668C34.7258 14.0983 33.5633 11.4311 31.5189 9.57159C29.4544 7.67157 26.7695 6.78287 23.984 7.04498C19.1943 7.50958 15.1658 12.1781 15.1658 17.2302V18.4023C12.3602 18.705 10.3359 19.5745 8.99344 21.0696C7.04962 23.252 7.06416 25.6919 7.61857 30.7778C8.17299 35.8636 17.9524 35.0053 17.9524 35.0053C17.9524 35.0053 6.16881 47.4224 19.3552 47.4224H30.5375C39.1556 47.4224 40.7383 43.3805 41.1586 39.46L42.5614 28.1634C42.7816 26.1633 42.8219 23.2531 40.8982 21.0707V21.0696ZM16.7329 22.9741C15.9304 22.9741 15.2798 22.3194 15.2798 21.5117C15.2798 20.704 15.9304 20.0493 16.7329 20.0493C17.5355 20.0493 18.1861 20.704 18.1861 21.5117C18.1861 22.3194 17.5355 22.9741 16.7329 22.9741ZM27.2512 32.8094L24.2031 36.3935C22.1542 38.8065 20.6329 38.19 20.8307 35.0278L20.919 33.6317L19.856 32.7262C17.4494 30.672 18.062 29.1522 21.2186 29.3457L25.911 29.6438C28.0169 29.7755 28.6149 31.1985 27.2512 32.8105V32.8094ZM17.9513 18.2809V17.2302C17.9513 13.6326 20.8978 10.1768 24.2645 9.85395C26.2687 9.67171 28.1723 10.2983 29.6556 11.6527C31.1187 12.9869 31.9403 14.8858 31.9403 16.8668V18.282H17.9513V18.2809ZM33.2761 22.9741C32.4735 22.9741 31.8229 22.3194 31.8229 21.5117C31.8229 20.704 32.4735 20.0493 33.2761 20.0493C34.0786 20.0493 34.7292 20.704 34.7292 21.5117C34.7292 22.3194 34.0786 22.9741 33.2761 22.9741Z" fill="#2B2B2B"/>
<path d="M9.58344 42.3657L5.11232 44.6685C4.72445 44.8687 4.57132 45.3468 4.77028 45.736C4.96925 46.1253 5.44654 46.2794 5.83441 46.0791L10.3055 43.7764C10.6934 43.5762 10.8465 43.0981 10.6476 42.7088C10.4486 42.3196 9.9713 42.1655 9.58344 42.3657Z" fill="#2B2B2B"/>
<path d="M13.3027 37.2349C13.1037 36.8457 12.6264 36.6916 12.2385 36.8918L0.429217 42.9721C0.0413481 43.1724 -0.111787 43.6493 0.087177 44.0397C0.286142 44.4289 0.763433 44.583 1.1513 44.3828L12.9595 38.3025C13.3474 38.1023 13.5005 37.6242 13.3015 37.2349H13.3027Z" fill="#2B2B2B"/>
<path d="M3.34442 39.2869L7.59198 37.1C7.97985 36.8998 8.13298 36.4217 7.93402 36.0324C7.73505 35.6432 7.25776 35.4891 6.86989 35.6893L2.62233 37.8762C2.23446 38.0764 2.08133 38.5545 2.28029 38.9438C2.47926 39.333 2.95655 39.4871 3.34442 39.2869Z" fill="#2B2B2B"/>
<path d="M48.4077 26.7986H50.8668L51.6694 22.534C51.9131 22.5688 52.2618 22.6037 52.6631 22.6037C54.076 22.6037 55.4877 22.2707 56.4647 21.5159C57.3544 20.7959 58.0519 19.6553 58.0519 18.2345C58.0519 17.024 57.5288 16.1983 56.7967 15.6899C55.8376 15.0059 54.4426 14.9001 53.6579 14.9001C52.5066 14.9001 51.3732 15.0059 50.5885 15.1983L48.4089 26.7986H48.4077ZM52.7145 16.9892C52.9582 16.9363 53.3248 16.9014 53.6389 16.9014C54.8417 16.9014 55.5224 17.3401 55.5224 18.3751C55.5224 19.5338 54.7198 20.5687 52.9593 20.5687C52.6452 20.5687 52.3144 20.5338 52.0528 20.463L52.7157 16.988L52.7145 16.9892ZM62.8953 18.0241C59.8616 18.0241 57.8038 20.463 57.8038 23.4463C57.8038 25.5702 59.2513 26.991 61.4131 26.991C64.3774 26.991 66.5046 24.6916 66.5046 21.5508C66.5046 19.6024 65.1789 18.023 62.8953 18.023V18.0241ZM62.5644 19.9365C63.576 19.9365 63.9068 20.7791 63.9068 21.5688C63.9068 23.0424 63.1401 25.0606 61.7618 25.0606C60.89 25.0606 60.4015 24.3935 60.4015 23.3934C60.3836 22.0592 61.1169 19.9365 62.5633 19.9365H62.5644ZM67.4088 18.2165L68.2114 26.7975H70.5833L72.0309 23.6915C72.3796 22.9198 72.5886 22.2696 73.0425 21.0592H73.0771C73.0771 22.0941 73.095 22.9198 73.1464 23.8141L73.3901 26.7975H75.7441L79.8944 18.2165H77.366L75.9185 21.796C75.5519 22.7792 75.2557 23.6387 74.9773 24.5859H74.9248C74.9773 23.6735 74.9427 22.831 74.9069 21.8309L74.6979 18.2153H72.64L70.9656 21.9535C70.599 22.813 70.2156 23.6735 69.9194 24.5859H69.8847C69.9373 23.6387 69.9719 22.831 69.9719 21.8478L69.954 18.2153H67.4077L67.4088 18.2165ZM85.9729 24.4812C85.2933 24.8142 84.5086 25.0257 83.5842 25.0257C82.8521 25.0257 82.2764 24.7973 81.9456 24.3586C81.7712 24.1134 81.684 23.7264 81.684 23.4812C85.1022 23.5689 87.2114 22.7792 87.2114 20.5856C87.2114 18.9882 85.9729 18.023 84.2471 18.023C81.1609 18.023 79.2774 20.7431 79.2774 23.3574C79.2774 25.5859 80.5327 26.9898 82.9739 26.9898C83.9151 26.9898 85.1536 26.8144 86.1473 26.3059L85.9729 24.4812ZM84.8574 20.6025C84.8574 21.3742 83.8804 21.6554 81.9277 21.6374C82.102 20.8297 82.7649 19.8645 83.933 19.8645C84.5086 19.8645 84.8574 20.1626 84.8574 20.6013V20.6025ZM89.9142 26.7975L90.5066 23.6038C90.8207 21.9186 91.5707 20.4798 93.1748 20.4798C93.3145 20.4798 93.4542 20.4978 93.576 20.4978L94.0645 18.041C93.908 18.023 93.7504 18.023 93.5939 18.023C92.4258 18.023 91.4668 18.8307 90.8732 19.9714H90.8207C90.8733 19.3751 90.9258 18.7958 90.9772 18.2165H88.7975C88.7103 18.9533 88.6053 20.3921 88.3616 21.6914L87.4025 26.7986H89.9131L89.9142 26.7975ZM99.1079 26.7975L99.8054 22.9367C100.12 21.2515 101.008 20.0411 101.863 20.0411C102.474 20.0411 102.666 20.5147 102.666 21.094C102.666 21.3922 102.613 21.7263 102.544 22.0772L101.672 26.7975H104.095L104.811 22.9018C105.125 21.1818 105.962 20.0411 106.798 20.0411C107.391 20.0411 107.652 20.4618 107.652 21.0592C107.652 21.3922 107.6 21.7611 107.53 22.1121L106.676 26.7975H109.1L110.024 21.796C110.111 21.3573 110.181 20.6902 110.181 20.3223C110.181 18.8655 109.414 18.023 108.088 18.023C106.989 18.023 105.926 18.5314 105.158 19.6373C105.089 18.8824 104.496 18.023 103.135 18.023C102.037 18.023 100.99 18.4966 100.223 19.6024H100.189L100.345 18.2165H98.1835C98.0785 18.9713 97.9398 19.9185 97.7476 21.0063L96.6835 26.7975H99.1068H99.1079ZM111.145 18.2165L112.836 25.9909C112.871 26.1844 112.871 26.289 112.784 26.4116C112.47 26.991 111.981 27.4994 111.407 27.9033C110.918 28.2543 110.361 28.4646 109.959 28.5873L110.517 30.746C111.075 30.6583 112.261 30.2375 113.255 29.2892C114.388 28.2183 115.4 26.6569 116.533 24.3755L119.585 18.2153H116.934L115.382 21.9884C115.016 22.9187 114.824 23.48 114.633 23.9885H114.597C114.528 23.444 114.44 22.8298 114.319 21.9524L113.796 18.2142H111.145V18.2165ZM44.9001 45.2926C45.6155 45.8325 47.1133 46.35 49.2148 46.395C52.5681 46.395 55.3402 44.6401 55.3402 41.2653C55.3402 39.4654 54.1777 38.228 52.3446 37.2605C51.0703 36.5406 50.1537 36.0006 50.1537 35.1231C50.1537 34.2457 50.9361 33.5257 52.434 33.5257C53.6859 33.5032 54.759 33.9307 55.2508 34.2007L56.2568 31.5008C55.6085 31.1409 54.5354 30.7584 52.7022 30.7584C49.416 30.7584 46.7557 32.6033 46.7557 35.6631C46.7557 37.643 48.2758 38.8129 49.8854 39.6904C51.2715 40.4103 51.9198 40.9728 51.9198 41.8278C51.9198 43.0202 50.7797 43.6052 49.5277 43.6052C48.1417 43.6052 46.8674 43.1777 45.9732 42.6377L44.9001 45.2926ZM58.9115 46.1475L59.8504 41.1078C60.2752 38.8804 61.4153 37.508 62.5331 37.508C63.3379 37.508 63.6509 38.0255 63.6509 38.7454C63.6509 39.2179 63.5838 39.6904 63.4944 40.1179L62.3766 46.1475H65.5958L66.7807 39.8479C66.8924 39.2179 66.9819 38.3855 66.9819 37.868C66.9819 35.9781 65.9311 34.8982 64.2321 34.8982C62.779 34.8982 61.6389 35.5506 60.7447 36.5631L60.6999 36.5406L61.9071 30.1734H58.6879L55.6923 46.1475H58.9115ZM74.3022 34.8982C70.4123 34.8982 67.7744 38.0255 67.7744 41.8503C67.7744 44.5726 69.6299 46.395 72.402 46.395C76.2024 46.395 78.9298 43.4477 78.9298 39.4204C78.9298 36.923 77.2308 34.8982 74.3022 34.8982ZM73.8774 37.3505C75.1741 37.3505 75.5988 38.4305 75.5988 39.4429C75.5988 41.3328 74.6152 43.9201 72.8491 43.9201C71.7313 43.9201 71.1053 43.0652 71.1053 41.7828C71.083 40.0729 72.0219 37.3505 73.8774 37.3505ZM81.3129 50.6023L82.2071 45.945H82.2518C82.6319 46.17 83.392 46.395 84.2862 46.395C88.0866 46.395 90.6128 42.8852 90.6128 39.0604C90.6128 36.8105 89.4727 34.8982 87.103 34.8982C85.784 34.8982 84.4874 35.5506 83.5932 36.743H83.5485L83.7496 35.0556H80.8658C80.7317 36.1806 80.4634 38.093 80.2175 39.3979L78.116 50.6023H81.3129ZM83.1013 41.0403C83.459 38.8579 84.6215 37.508 85.8287 37.508C86.8794 37.508 87.2371 38.4305 87.2371 39.3079C87.2371 41.4678 85.8958 43.9426 84.1744 43.9426C83.5485 43.9426 83.0566 43.7402 82.6989 43.4027L83.1013 41.0403ZM93.8655 46.1475L95.9446 35.1456H92.7254L90.6463 46.1475H93.8655ZM94.7374 33.7732C95.7658 33.7732 96.6376 33.0983 96.6376 31.9508C96.6376 30.9834 95.967 30.3534 95.028 30.3534C94.0891 30.3534 93.1949 31.0959 93.1725 32.1983C93.1725 33.1657 93.8432 33.7732 94.7374 33.7732ZM99.2454 46.1475L100.833 37.598H102.979L103.448 35.1456H101.28L101.392 34.6057C101.593 33.5032 102.241 32.6033 103.269 32.6033C103.694 32.6033 104.03 32.6483 104.32 32.7833L104.879 30.1959C104.521 30.0384 103.94 29.9259 103.158 29.9259C102.085 29.9259 100.922 30.2184 100.05 30.9834C98.9548 31.9058 98.4406 33.2782 98.2171 34.5607L98.1053 35.1456H96.6969L96.2274 37.598H97.6358L96.0486 46.1475H99.2454ZM103.827 35.1456L105.996 45.1126C106.04 45.3601 106.04 45.4951 105.929 45.6526C105.526 46.395 104.9 47.0475 104.163 47.5649C103.537 48.0149 102.821 48.2849 102.307 48.4424L103.022 51.2097C103.738 51.0972 105.258 50.5573 106.532 49.3423C107.985 47.9699 109.282 45.9675 110.735 43.0427L114.647 35.1456H111.249L109.26 39.9829C108.79 41.1753 108.544 41.8953 108.298 42.5477H108.254C108.164 41.8503 108.052 41.0628 107.896 39.9379L107.225 35.1456H103.827Z" fill="#2B2B2B"/>
<path d="M48.6666 62.3097C48.4333 62.3097 48.2033 62.2764 47.9766 62.2097C47.7566 62.1364 47.5566 62.0397 47.3766 61.9197C47.1966 61.7997 47.0466 61.6664 46.9266 61.5197C46.8066 61.3664 46.7266 61.2131 46.6866 61.0597L46.9766 60.9297L46.9466 62.1897H45.7566V54.8097H46.9866V58.1597L46.7666 58.0597C46.8 57.8997 46.8733 57.7497 46.9866 57.6097C47.1066 57.463 47.2533 57.333 47.4266 57.2197C47.6 57.0997 47.79 57.0064 47.9966 56.9397C48.2033 56.8664 48.4133 56.8297 48.6266 56.8297C49.1 56.8297 49.5166 56.9464 49.8766 57.1797C50.2433 57.413 50.53 57.7364 50.7366 58.1497C50.95 58.563 51.0566 59.0331 51.0566 59.5597C51.0566 60.0931 50.9533 60.5664 50.7466 60.9797C50.54 61.3931 50.2533 61.7197 49.8866 61.9597C49.5266 62.1931 49.12 62.3097 48.6666 62.3097ZM48.4066 61.2297C48.6866 61.2297 48.9366 61.1597 49.1566 61.0197C49.3766 60.8731 49.55 60.6764 49.6766 60.4297C49.8033 60.1764 49.8666 59.8864 49.8666 59.5597C49.8666 59.2397 49.8033 58.9564 49.6766 58.7097C49.5566 58.463 49.3866 58.2697 49.1666 58.1297C48.9466 57.9897 48.6933 57.9197 48.4066 57.9197C48.12 57.9197 47.8666 57.9897 47.6466 58.1297C47.4266 58.2697 47.2533 58.463 47.1266 58.7097C47 58.9564 46.9366 59.2397 46.9366 59.5597C46.9366 59.8864 47 60.1764 47.1266 60.4297C47.2533 60.6764 47.4266 60.8731 47.6466 61.0197C47.8666 61.1597 48.12 61.2297 48.4066 61.2297ZM53.3578 64.5097L54.4778 61.9197L54.4878 62.7397L51.8878 56.9397H53.3078L54.7578 60.3797C54.8045 60.4664 54.8511 60.5831 54.8978 60.7297C54.9445 60.8697 54.9845 61.0097 55.0178 61.1497L54.7678 61.2297C54.8145 61.1031 54.8645 60.9697 54.9178 60.8297C54.9711 60.6831 55.0211 60.5331 55.0678 60.3797L56.3078 56.9397H57.7378L55.5378 62.2097L54.6378 64.5097H53.3578ZM67.3545 62.2097V55.2097H68.6545V62.2097H67.3545ZM62.8645 62.2097V55.2097H64.1645V62.2097H62.8645ZM63.4045 59.3297V58.1097H67.9845V59.3297H63.4045ZM73.3903 62.3097C72.837 62.3097 72.347 62.1931 71.9203 61.9597C71.5003 61.7264 71.1703 61.4097 70.9303 61.0097C70.697 60.6031 70.5803 60.1397 70.5803 59.6197C70.5803 59.2064 70.647 58.8297 70.7803 58.4897C70.9136 58.1497 71.097 57.8564 71.3303 57.6097C71.5703 57.3564 71.8536 57.163 72.1803 57.0297C72.5136 56.8897 72.877 56.8197 73.2703 56.8197C73.617 56.8197 73.9403 56.8864 74.2403 57.0197C74.5403 57.153 74.8003 57.3364 75.0203 57.5697C75.2403 57.7964 75.407 58.0697 75.5203 58.3897C75.6403 58.703 75.697 59.0464 75.6903 59.4197L75.6803 59.8497H71.4103L71.1803 59.0097H74.6503L74.4903 59.1797V58.9597C74.4703 58.7531 74.4036 58.5731 74.2903 58.4197C74.177 58.2597 74.0303 58.1364 73.8503 58.0497C73.677 57.9564 73.4836 57.9097 73.2703 57.9097C72.9436 57.9097 72.667 57.9731 72.4403 58.0997C72.2203 58.2264 72.0536 58.4097 71.9403 58.6497C71.827 58.8831 71.7703 59.1764 71.7703 59.5297C71.7703 59.8697 71.8403 60.1664 71.9803 60.4197C72.127 60.6731 72.3303 60.8697 72.5903 61.0097C72.857 61.1431 73.167 61.2097 73.5203 61.2097C73.767 61.2097 73.9936 61.1697 74.2003 61.0897C74.407 61.0097 74.6303 60.8664 74.8703 60.6597L75.4803 61.5097C75.3003 61.6764 75.0936 61.8197 74.8603 61.9397C74.6336 62.0531 74.3936 62.1431 74.1403 62.2097C73.887 62.2764 73.637 62.3097 73.3903 62.3097ZM79.3697 62.3097C78.9363 62.3097 78.543 62.1897 78.1897 61.9497C77.8363 61.7097 77.553 61.3831 77.3397 60.9697C77.1263 60.5564 77.0197 60.0864 77.0197 59.5597C77.0197 59.0331 77.1263 58.563 77.3397 58.1497C77.553 57.7364 77.843 57.413 78.2097 57.1797C78.5763 56.9464 78.9897 56.8297 79.4497 56.8297C79.7163 56.8297 79.9597 56.8697 80.1797 56.9497C80.3997 57.023 80.593 57.1297 80.7597 57.2697C80.9263 57.4097 81.063 57.5697 81.1697 57.7497C81.283 57.9297 81.3597 58.123 81.3997 58.3297L81.1297 58.2597V56.9397H82.3697V62.2097H81.1197V60.9497L81.4097 60.8997C81.363 61.0797 81.2763 61.2564 81.1497 61.4297C81.0297 61.5964 80.8763 61.7464 80.6897 61.8797C80.5097 62.0064 80.3063 62.1097 80.0797 62.1897C79.8597 62.2697 79.623 62.3097 79.3697 62.3097ZM79.7097 61.2197C79.9963 61.2197 80.2497 61.1497 80.4697 61.0097C80.6897 60.8697 80.8597 60.6764 80.9797 60.4297C81.1063 60.1764 81.1697 59.8864 81.1697 59.5597C81.1697 59.2397 81.1063 58.9564 80.9797 58.7097C80.8597 58.463 80.6897 58.2697 80.4697 58.1297C80.2497 57.9897 79.9963 57.9197 79.7097 57.9197C79.423 57.9197 79.1697 57.9897 78.9497 58.1297C78.7363 58.2697 78.5697 58.463 78.4497 58.7097C78.3297 58.9564 78.2697 59.2397 78.2697 59.5597C78.2697 59.8864 78.3297 60.1764 78.4497 60.4297C78.5697 60.6764 78.7363 60.8697 78.9497 61.0097C79.1697 61.1497 79.423 61.2197 79.7097 61.2197ZM86.5157 62.3097C86.049 62.3097 85.629 62.1931 85.2557 61.9597C84.889 61.7197 84.5957 61.3964 84.3757 60.9897C84.1623 60.5764 84.0557 60.1031 84.0557 59.5697C84.0557 59.043 84.1623 58.573 84.3757 58.1597C84.589 57.7464 84.879 57.423 85.2457 57.1897C85.619 56.9497 86.039 56.8297 86.5057 56.8297C86.759 56.8297 87.0023 56.8697 87.2357 56.9497C87.4757 57.0297 87.689 57.1397 87.8757 57.2797C88.0623 57.413 88.209 57.563 88.3157 57.7297C88.429 57.8964 88.4923 58.0697 88.5057 58.2497L88.1757 58.2897V54.8097H89.4057V62.2097H88.2157L88.1857 60.9697L88.4257 60.9897C88.419 61.1564 88.359 61.3164 88.2457 61.4697C88.139 61.6231 87.999 61.7631 87.8257 61.8897C87.6523 62.0164 87.449 62.1197 87.2157 62.1997C86.989 62.2731 86.7557 62.3097 86.5157 62.3097ZM86.7557 61.2697C87.0423 61.2697 87.2957 61.1964 87.5157 61.0497C87.7357 60.9031 87.9057 60.7031 88.0257 60.4497C88.1523 60.1964 88.2157 59.9031 88.2157 59.5697C88.2157 59.243 88.1523 58.953 88.0257 58.6997C87.9057 58.4397 87.7357 58.2397 87.5157 58.0997C87.2957 57.953 87.0423 57.8797 86.7557 57.8797C86.469 57.8797 86.2157 57.953 85.9957 58.0997C85.7757 58.2397 85.6023 58.4397 85.4757 58.6997C85.3557 58.953 85.2957 59.243 85.2957 59.5697C85.2957 59.9031 85.3557 60.1964 85.4757 60.4497C85.6023 60.7031 85.7757 60.9031 85.9957 61.0497C86.2157 61.1964 86.469 61.2697 86.7557 61.2697ZM93.1619 62.3097C92.6953 62.3097 92.2753 62.2331 91.9019 62.0797C91.5353 61.9197 91.2353 61.6931 91.0019 61.3997L91.8019 60.7097C92.0019 60.9364 92.2253 61.0997 92.4719 61.1997C92.7186 61.2997 92.9786 61.3497 93.2519 61.3497C93.3653 61.3497 93.4653 61.3364 93.5519 61.3097C93.6453 61.2831 93.7253 61.2431 93.7919 61.1897C93.8586 61.1364 93.9086 61.0764 93.9419 61.0097C93.9819 60.9364 94.0019 60.8564 94.0019 60.7697C94.0019 60.6097 93.9419 60.4831 93.8219 60.3897C93.7553 60.3431 93.6486 60.2931 93.5019 60.2397C93.3619 60.1864 93.1786 60.133 92.9519 60.0797C92.5919 59.9864 92.2919 59.8797 92.0519 59.7597C91.8119 59.6331 91.6253 59.4931 91.4919 59.3397C91.3786 59.213 91.2919 59.0697 91.2319 58.9097C91.1786 58.7497 91.1519 58.5764 91.1519 58.3897C91.1519 58.1564 91.2019 57.9464 91.3019 57.7597C91.4086 57.5664 91.5519 57.3997 91.7319 57.2597C91.9119 57.1197 92.1219 57.013 92.3619 56.9397C92.6019 56.8664 92.8519 56.8297 93.1119 56.8297C93.3786 56.8297 93.6353 56.863 93.8819 56.9297C94.1353 56.9964 94.3686 57.0931 94.5819 57.2197C94.8019 57.3397 94.9886 57.4864 95.1419 57.6597L94.4619 58.4097C94.3353 58.2897 94.1953 58.183 94.0419 58.0897C93.8953 57.9964 93.7453 57.923 93.5919 57.8697C93.4386 57.8097 93.2953 57.7797 93.1619 57.7797C93.0353 57.7797 92.9219 57.793 92.8219 57.8197C92.7219 57.8397 92.6386 57.873 92.5719 57.9197C92.5053 57.9664 92.4519 58.0264 92.4119 58.0997C92.3786 58.1664 92.3619 58.2464 92.3619 58.3397C92.3686 58.4197 92.3886 58.4964 92.4219 58.5697C92.4619 58.6364 92.5153 58.6931 92.5819 58.7397C92.6553 58.7864 92.7653 58.8397 92.9119 58.8997C93.0586 58.9597 93.2486 59.0164 93.4819 59.0697C93.8086 59.1564 94.0819 59.253 94.3019 59.3597C94.5219 59.4664 94.6953 59.5897 94.8219 59.7297C94.9486 59.8497 95.0386 59.9897 95.0919 60.1497C95.1453 60.3097 95.1719 60.4864 95.1719 60.6797C95.1719 60.9931 95.0819 61.2731 94.9019 61.5197C94.7286 61.7664 94.4886 61.9597 94.1819 62.0997C93.8819 62.2397 93.5419 62.3097 93.1619 62.3097ZM96.8554 64.4097V56.9397H98.0654L98.0854 58.1397L97.8754 58.0497C97.9154 57.843 98.0288 57.6497 98.2154 57.4697C98.4021 57.283 98.6288 57.133 98.8954 57.0197C99.1688 56.9064 99.4521 56.8497 99.7454 56.8497C100.212 56.8497 100.625 56.9664 100.985 57.1997C101.352 57.433 101.639 57.753 101.845 58.1597C102.059 58.5664 102.165 59.0364 102.165 59.5697C102.165 60.0964 102.059 60.5664 101.845 60.9797C101.639 61.3864 101.352 61.7097 100.985 61.9497C100.625 62.1831 100.219 62.2997 99.7654 62.2997C99.4588 62.2997 99.1621 62.2397 98.8754 62.1197C98.5954 61.9997 98.3554 61.8431 98.1554 61.6497C97.9621 61.4564 97.8421 61.2531 97.7954 61.0397L98.0954 60.8997V64.4097H96.8554ZM99.5154 61.2097C99.7954 61.2097 100.045 61.1397 100.265 60.9997C100.485 60.8597 100.655 60.6664 100.775 60.4197C100.902 60.1731 100.965 59.8897 100.965 59.5697C100.965 59.2497 100.905 58.9697 100.785 58.7297C100.665 58.483 100.495 58.2897 100.275 58.1497C100.055 58.0097 99.8021 57.9397 99.5154 57.9397C99.2221 57.9397 98.9654 58.0097 98.7454 58.1497C98.5321 58.2831 98.3621 58.4731 98.2354 58.7197C98.1088 58.9664 98.0454 59.2497 98.0454 59.5697C98.0454 59.8897 98.1088 60.1731 98.2354 60.4197C98.3621 60.6664 98.5321 60.8597 98.7454 60.9997C98.9654 61.1397 99.2221 61.2097 99.5154 61.2097ZM105.692 62.3097C105.312 62.3097 104.982 62.2264 104.702 62.0597C104.422 61.8864 104.208 61.6431 104.062 61.3297C103.915 61.0097 103.842 60.6297 103.842 60.1897V56.9397H105.072V59.9297C105.072 60.2097 105.115 60.4497 105.202 60.6497C105.288 60.8431 105.415 60.9931 105.582 61.0997C105.748 61.2064 105.948 61.2597 106.182 61.2597C106.355 61.2597 106.512 61.2331 106.652 61.1797C106.798 61.1197 106.925 61.0397 107.032 60.9397C107.138 60.8331 107.222 60.7097 107.282 60.5697C107.342 60.4231 107.372 60.2664 107.372 60.0997V56.9397H108.602V62.2097H107.402L107.382 61.1097L107.602 60.9897C107.522 61.2431 107.385 61.4697 107.192 61.6697C107.005 61.8631 106.782 62.0197 106.522 62.1397C106.262 62.2531 105.985 62.3097 105.692 62.3097ZM110.643 62.2097V56.9397H111.853L111.873 58.6197L111.703 58.2397C111.777 57.9731 111.903 57.7331 112.083 57.5197C112.263 57.3064 112.47 57.1397 112.703 57.0197C112.943 56.893 113.193 56.8297 113.453 56.8297C113.567 56.8297 113.673 56.8397 113.773 56.8597C113.88 56.8797 113.967 56.9031 114.033 56.9297L113.703 58.2797C113.63 58.2397 113.54 58.2064 113.433 58.1797C113.327 58.1531 113.22 58.1397 113.113 58.1397C112.947 58.1397 112.787 58.1731 112.633 58.2397C112.487 58.2997 112.357 58.3864 112.243 58.4997C112.13 58.6131 112.04 58.7464 111.973 58.8997C111.913 59.0464 111.883 59.213 111.883 59.3997V62.2097H110.643Z" fill="#BDBDBD"/>
</svg>
