<svg width="111" height="37" viewBox="0 0 111 37" fill="none" xmlns="http://www.w3.org/2000/svg">
<g opacity="0.4" clip-path="url(#clip0_21_193)">
<path d="M106.862 22.2109L109.913 24.2399C108.923 25.6949 106.554 28.1912 102.459 28.1912C97.3728 28.1912 93.5852 24.2666 93.5852 19.2741C93.5852 13.9612 97.413 10.357 102.03 10.357C106.674 10.357 108.95 14.0413 109.686 16.0303L110.087 17.0448L98.1223 21.9839C99.0324 23.7727 100.451 24.6804 102.459 24.6804C104.466 24.6804 105.858 23.6926 106.862 22.2109ZM97.4799 18.9938L105.47 15.6832C105.028 14.5753 103.717 13.7877 102.151 13.7877C100.157 13.7877 97.3862 15.5497 97.4799 18.9938Z" fill="#707070"/>
<path d="M87.8169 1.26636H91.6714V27.3769H87.8169V1.26636Z" fill="#707070"/>
<path d="M81.7406 11.0512H85.4612V26.9097C85.4612 33.4907 81.5666 36.2006 76.9626 36.2006C72.6263 36.2006 70.0164 33.2905 69.0394 30.9277L72.4523 29.5128C73.0679 30.9678 74.5535 32.6898 76.9626 32.6898C79.9204 32.6898 81.7406 30.861 81.7406 27.4437V26.1622H81.6067C80.7234 27.2301 79.0371 28.1912 76.8957 28.1912C72.4255 28.1912 68.3301 24.3067 68.3301 19.3008C68.3301 14.2682 72.4255 10.3437 76.8957 10.3437C79.0237 10.3437 80.7234 11.2914 81.6067 12.3327H81.7406V11.0512ZM82.0082 19.3008C82.0082 16.1505 79.907 13.8544 77.2303 13.8544C74.5267 13.8544 72.2515 16.1505 72.2515 19.3008C72.2515 22.4111 74.5267 24.6671 77.2303 24.6671C79.907 24.6804 82.0082 22.4111 82.0082 19.3008Z" fill="#707070"/>
<path d="M47.1704 19.2341C47.1704 24.3734 43.1553 28.1511 38.2301 28.1511C33.3049 28.1511 29.2898 24.36 29.2898 19.2341C29.2898 14.068 33.3049 10.3036 38.2301 10.3036C43.1553 10.3036 47.1704 14.068 47.1704 19.2341ZM43.2624 19.2341C43.2624 16.0303 40.9336 13.8277 38.2301 13.8277C35.5266 13.8277 33.1978 16.0303 33.1978 19.2341C33.1978 22.4111 35.5266 24.6404 38.2301 24.6404C40.9336 24.6404 43.2624 22.4111 43.2624 19.2341Z" fill="#707070"/>
<path d="M66.6973 19.2741C66.6973 24.4134 62.6822 28.1912 57.757 28.1912C52.8318 28.1912 48.8167 24.4134 48.8167 19.2741C48.8167 14.1081 52.8318 10.357 57.757 10.357C62.6822 10.357 66.6973 14.0947 66.6973 19.2741ZM62.7759 19.2741C62.7759 16.0703 60.4471 13.8678 57.7436 13.8678C55.0401 13.8678 52.7113 16.0703 52.7113 19.2741C52.7113 22.4511 55.0401 24.6804 57.7436 24.6804C60.4605 24.6804 62.7759 22.4378 62.7759 19.2741Z" fill="#707070"/>
<path d="M14.5946 24.28C8.98681 24.28 4.59695 19.768 4.59695 14.1748C4.59695 8.58159 8.98681 4.06965 14.5946 4.06965C17.6193 4.06965 19.8276 5.25771 21.4604 6.77949L24.1506 4.09635C21.8753 1.92047 18.8372 0.265198 14.5946 0.265198C6.91233 0.265198 0.447998 6.51251 0.447998 14.1748C0.447998 21.8371 6.91233 28.0844 14.5946 28.0844C18.7435 28.0844 21.8753 26.7228 24.3245 24.1865C26.8407 21.6769 27.6169 18.1528 27.6169 15.2961C27.6169 14.4017 27.5099 13.4807 27.3894 12.7999H14.5946V16.5109H23.7089C23.4412 18.8336 22.7051 20.4221 21.621 21.5034C20.3094 22.8249 18.235 24.28 14.5946 24.28Z" fill="#707070"/>
</g>
<defs>
<clipPath id="clip0_21_193">
<rect width="110" height="36" fill="white" transform="translate(0.288086 0.209717)"/>
</clipPath>
</defs>
</svg>
