<svg width="141" height="26" viewBox="0 0 141 26" fill="none" xmlns="http://www.w3.org/2000/svg">
<g opacity="0.4">
<path fill-rule="evenodd" clip-rule="evenodd" d="M26.5117 13.2093C26.5117 6.28257 20.7367 0.597137 13.3986 0.597137C6.15749 0.597137 0.288086 6.24055 0.288086 13.2093C0.288086 20.1747 6.15749 25.8223 13.3986 25.8223C20.6397 25.8223 26.5117 20.1747 26.5117 13.2093ZM9.70111 4.14702L13.3688 15.8524L13.3994 15.8725L13.4256 15.8524L17.0916 4.14702L21.8444 19.1342H20.9507C20.9507 19.1342 20.3513 16.5264 19.378 14.9708C18.8495 14.1245 18.0299 13.4328 16.9396 13.4513C16.1672 13.4664 15.5006 13.8707 14.6715 14.9909C14.1674 15.6641 13.3977 17.3718 13.3977 17.3718C13.3977 17.3718 12.6271 15.6624 12.1265 14.9909C11.293 13.8707 10.6255 13.4664 9.8575 13.4513C8.7654 13.4328 7.94763 14.1245 7.4173 14.9691C6.44402 16.5255 5.84467 19.1342 5.84467 19.1342H4.95264L9.70111 4.14702ZM35.2695 17.4445L37.8364 9.04285H42.2581L43.3738 12.6331L46.582 9.02604H51.2746L48.8344 17.437L45.2854 17.4487L46.582 13.1105L42.4643 17.4487H40.7213L39.451 12.8079L38.0234 17.4487L35.2695 17.4445ZM77.3965 9.04249L66.5008 9.02485L65.7669 11.7797H69.4495L68.0158 17.4484L71.4633 17.4442L73.0002 11.7554H76.7395L77.3965 9.04249ZM95.7157 9.04164V9.04248L101.343 9.04164C101.343 9.04164 103.753 9.21645 103.515 11.2208C103.273 13.2227 101.059 13.8623 101.059 13.8623C101.059 13.8623 100.928 13.99 101.032 14.0657C101.051 14.0786 101.092 14.094 101.149 14.1149C101.408 14.211 101.979 14.4226 102.067 15.0389C102.137 15.5504 101.986 15.9661 101.882 16.2513C101.833 16.3849 101.795 16.4899 101.795 16.5626C101.795 16.7869 101.818 17.2374 102.114 17.4357H98.5596C98.5596 17.4357 97.9227 17.3425 97.9812 16.7113C98.0328 16.0894 98.0616 15.5406 98.0616 15.5406C98.0616 15.5406 98.01 14.8893 97.0568 14.9649L94.4576 14.9397L93.715 17.4433H90.457L92.9366 9.0408H95.7157V9.04164ZM95.2964 12.6193L95.7181 11.0032L99.352 11.0166C99.352 11.0166 100.033 10.9679 99.9889 11.6696C99.9391 12.4689 99.0331 12.6193 99.0331 12.6193H95.2964ZM123.742 9.04155H120.405L118.127 17.4516H126.98L127.618 15.1354H122.127L123.742 9.04155ZM138.284 9.03421L140.287 17.4485H136.814L136.448 15.9912L136.436 15.9601H132.229L132.216 15.9761L131.199 17.4443L128.26 17.4485L134.195 9.03421H138.284ZM135.348 11.5143L133.626 13.9633L133.675 13.9843H135.907L135.946 13.9801L135.348 11.5143ZM61.3158 12.1399C61.1524 11.407 60.1101 10.9044 59.0521 10.9044C58.5462 10.87 58.0037 10.9683 57.3475 11.1944C56.3917 11.5272 55.255 12.9231 55.5058 14.3418C55.7731 15.8158 58.0395 16.0444 59.5309 15.3309C59.2268 15.4797 61.8199 14.4787 61.3158 12.1399ZM59.0596 10.7797L59.0713 8.7017V10.5876L59.0596 10.7797ZM57.0033 8.91097C57.6149 8.79667 58.3863 8.71515 59.0713 8.7017C61.6364 8.7017 64.4707 9.56986 64.9625 11.8726C65.4736 14.2569 63.1007 16.9412 59.4784 17.6093C55.6124 18.3287 52.1648 17.0143 51.6764 14.5703C51.0946 11.6785 54.391 9.39421 57.0033 8.91097ZM84.3891 10.9046C85.4471 10.9046 86.4929 11.4071 86.6484 12.14C87.1587 14.4789 84.5647 15.4798 84.874 15.331C83.3791 16.0446 81.111 15.816 80.8454 14.3419C80.5894 12.9232 81.7279 11.5273 82.688 11.1945C83.3424 10.9684 83.8885 10.8701 84.3891 10.9046ZM84.4118 8.70181L84.3985 10.7729L84.4118 10.5877V8.70181ZM84.4118 8.70181C83.7295 8.71526 82.9545 8.79678 82.342 8.91108C79.7297 9.39432 76.429 11.6786 77.0108 14.5705C77.501 17.0144 80.9529 18.3288 84.8128 17.6094C88.4404 16.9413 90.8124 14.257 90.3022 11.8727C89.812 9.56997 86.9761 8.70181 84.4118 8.70181ZM114.186 12.1398C114.025 11.4061 112.99 10.938 111.932 10.8817L111.947 10.5867V8.70077C114.508 8.70077 117.344 9.56892 117.834 11.8717C118.348 14.2559 115.972 16.9402 112.348 17.6084C108.489 18.3278 105.037 17.0134 104.548 14.5694C103.97 11.6775 107.267 9.39328 109.874 8.91004C110.494 8.79574 111.263 8.71422 111.947 8.70077L111.932 10.8817C111.317 10.843 111.012 10.9203 110.222 11.1943C109.263 11.5271 108.125 12.923 108.381 14.3417C108.648 15.8158 110.915 16.0444 112.41 15.3308C112.095 15.4796 114.693 14.4787 114.186 12.1398Z" fill="#898989"/>
</g>
</svg>
