<svg width="141" height="11" viewBox="0 0 141 11" fill="none" xmlns="http://www.w3.org/2000/svg">
<path d="M6.53438 10.057H8.59729L6.10652 6.24321C7.32898 6.05398 8.52088 5.12238 8.52088 3.39018C8.52088 1.59976 7.20674 0.347924 5.18967 0.347924H0.712402V10.057H2.50025V6.43244H4.27283L6.53438 10.057ZM6.68719 3.39018C6.68719 4.32178 5.95371 4.93315 4.94518 4.93315H2.50025V1.84722H4.94518C5.95371 1.84722 6.68719 2.45858 6.68719 3.39018ZM12.396 5.20972C12.396 8.10641 14.5506 10.2316 17.6068 10.2316C20.6629 10.2316 22.8175 8.10641 22.8175 5.20972C22.8175 2.31302 20.6629 0.187805 17.6068 0.187805C14.5506 0.187805 12.396 2.31302 12.396 5.20972ZM20.9838 5.20972C20.9838 7.20393 19.6544 8.71778 17.6068 8.71778C15.5439 8.71778 14.2297 7.20393 14.2297 5.20972C14.2297 3.20095 15.5439 1.70166 17.6068 1.70166C19.6544 1.70166 20.9838 3.20095 20.9838 5.20972ZM27.0857 10.057H32.2353C34.1454 10.057 35.1998 8.93612 35.1998 7.43683C35.1998 6.24321 34.3135 5.20972 33.2286 5.0496C34.176 4.86037 35.0011 4.04522 35.0011 2.82249C35.0011 1.4542 33.9621 0.347924 32.0978 0.347924H27.0857V10.057ZM28.8736 4.36545V1.84722H31.7311C32.6479 1.84722 33.1674 2.3858 33.1674 3.11362C33.1674 3.84143 32.6479 4.36545 31.7311 4.36545H28.8736ZM28.8736 8.55766V5.86475H31.8075C32.8313 5.86475 33.3661 6.47611 33.3661 7.20392C33.3661 8.04819 32.7854 8.55766 31.8075 8.55766H28.8736ZM39.5411 10.057H41.329V0.347924H39.5411V10.057ZM53.148 10.057H54.8747V0.347924H53.0868V7.23304L47.8761 0.347924H46.0424V10.057H47.8302V2.98261L53.148 10.057ZM65.4017 8.68866C66.3033 9.60571 67.6632 10.2316 69.5428 10.2316C72.2933 10.2316 73.4852 8.84878 73.4852 7.23304C73.4852 5.12238 71.4834 4.62747 69.8026 4.21989C68.5954 3.92877 67.5563 3.68131 67.5563 2.92438C67.5563 2.19657 68.2286 1.71621 69.283 1.71621C70.3527 1.71621 71.4376 2.06556 72.2322 2.82249L73.256 1.55609C72.3086 0.682719 71.025 0.202361 69.4358 0.202361C67.2048 0.202361 65.7226 1.43964 65.7226 3.04083C65.7226 5.09327 67.6785 5.55907 69.3441 5.95209C70.5819 6.25777 71.6668 6.51978 71.6668 7.39316C71.6668 8.03363 71.0861 8.71778 69.6192 8.71778C68.1981 8.71778 67.0979 8.09186 66.3949 7.3786L65.4017 8.68866ZM84.7688 10.057H86.5567V0.347924H84.7688V4.32178H79.4664V0.347924H77.6785V10.057H79.4664V5.82108H84.7688V10.057ZM98.4808 10.057H100.437L96.4331 0.347924H94.2021L90.1986 10.057H92.1545L92.9033 8.19375H97.732L98.4808 10.057ZM95.3176 1.78899L97.2277 6.69446H93.4075L95.3176 1.78899ZM109.918 10.057H111.981L109.491 6.24321C110.713 6.05398 111.905 5.12238 111.905 3.39018C111.905 1.59976 110.591 0.347924 108.574 0.347924H104.096V10.057H105.884V6.43244H107.657L109.918 10.057ZM110.071 3.39018C110.071 4.32178 109.338 4.93315 108.329 4.93315H105.884V1.84722H108.329C109.338 1.84722 110.071 2.45858 110.071 3.39018ZM125.04 10.057H126.828V0.347924H124.307L121.525 6.88369L118.76 0.347924H116.238V10.057H118.026V2.70604L121.143 10.057H121.907L125.04 2.70604V10.057ZM138.756 10.057H140.712L136.709 0.347924H134.478L130.474 10.057H132.43L133.179 8.19375H138.008L138.756 10.057ZM135.593 1.78899L137.503 6.69446H133.683L135.593 1.78899Z" fill="#ADADAD"/>
</svg>
